#
# Bunkspeed OBJ File
# http://www.bunkspeed.com
#
mtllib csl.mtl

##########################
g Root|circlesquare_VISUALIZE_(Default)|Merged_Parts|Part
##########################
v 0.02236068 0.0253 -0.02
v 0.02236068 0.0003 -0.02
v 0.01910368 0.0003 -0.02313113
v 0.02236068 0.0253 -0.02
v 0.01910368 0.0003 -0.02313113
v 0.01910368 0.0253 -0.02313113
v 0.01541341 0.0003 -0.02573765
v 0.01541341 0.0253 -0.02573765
v 0.01137357 0.0003 -0.02776044
v 0.01137357 0.0253 -0.02776044
v 0.00707577 0.0003 -0.02915362
v 0.00707577 0.0253 -0.02915362
v 0.002617493 0.0003 -0.02988559
v 0.002617493 0.0253 -0.02988559
v -0.001900148 0.0003 -0.02993976
v -0.001900148 0.0253 -0.02993976
v -0.006374694 0.0003 -0.0293149
v -0.006374694 0.0253 -0.0293149
v -0.01070466 0.0003 -0.02802517
v -0.01070466 0.0253 -0.02802517
v -0.01479185 0.0003 -0.02609983
v -0.01479185 0.0253 -0.02609983
v -0.01854355 0.0003 -0.02358255
v -0.01854355 0.0253 -0.02358255
v -0.02187469 0.0003 -0.02053041
v -0.02187469 0.0253 -0.02053041
v -0.02470971 0.0003 -0.01701264
v -0.02470971 0.0253 -0.01701264
v -0.02698432 0.0003 -0.01310903
v -0.02698432 0.0253 -0.01310903
v -0.02864691 0.0003 -0.008908103
v -0.02864691 0.0253 -0.008908103
v -0.0296598 0.0003 -0.00450514
v -0.0296598 0.0253 -0.00450514
v -0.03 0.0003 5.510911E-18
v -0.03 0.0253 5.510911E-18
v -0.0296598 0.0003 0.00450514
v -0.0296598 0.0253 0.00450514
v -0.02864691 0.0003 0.008908103
v -0.02864691 0.0253 0.008908103
v -0.02698432 0.0003 0.01310903
v -0.02698432 0.0253 0.01310903
v -0.02470971 0.0003 0.01701264
v -0.02470971 0.0253 0.01701264
v -0.02187469 0.0003 0.02053041
v -0.02187469 0.0253 0.02053041
v -0.01854355 0.0003 0.02358255
v -0.01854355 0.0253 0.02358255
v -0.01479185 0.0003 0.02609983
v -0.01479185 0.0253 0.02609983
v -0.01070466 0.0003 0.02802517
v -0.01070466 0.0253 0.02802517
v -0.006374694 0.0003 0.0293149
v -0.006374694 0.0253 0.0293149
v -0.001900148 0.0003 0.02993976
v -0.001900148 0.0253 0.02993976
v 0.002617493 0.0003 0.02988559
v 0.002617493 0.0253 0.02988559
v 0.00707577 0.0003 0.02915362
v 0.00707577 0.0253 0.02915362
v 0.01137357 0.0003 0.02776044
v 0.01137357 0.0253 0.02776044
v 0.01541341 0.0003 0.02573765
v 0.01541341 0.0253 0.02573765
v 0.01910368 0.0003 0.02313113
v 0.01910368 0.0253 0.02313113
v 0.02236068 0.0003 0.02
v 0.02236068 0.0253 0.02
v 0.03763932 0.0253 0.02
v 0.02236068 0.0253 0.02
v 0.03763932 0.0003 0.02
v 0.02236068 0.0003 0.02
v 0.03763932 0.0253 -0.02
v 0.03763932 0.0253 0.02
v 0.03763932 0.0003 -0.02
v 0.03763932 0.0003 0.02
v 0.02236068 0.0253 -0.02
v 0.03763932 0.0253 -0.02
v 0.02236068 0.0003 -0.02
v 0.03763932 0.0003 -0.02
v 0.02236068 0.0253 0.02
v 0.03763932 0.0253 0.02
v 0.02763932 0.0253 0.01
v 0.02763932 0.0253 0.01
v 0.03763932 0.0253 0.02
v 0.02763932 0.0253 -0.01
v 0.00638603 0.0253 -0.01895306
v 0.009685664 0.0253 -0.01749823
v 0.02236068 0.0253 -0.02
v 0.01267041 0.0253 -0.01547452
v 0.01524324 0.0253 -0.01294773
v 0.01524324 0.0253 -0.01294773
v 0.01732051 0.0253 -0.01
v 0.02236068 0.0253 -0.02
v 0.02763932 0.0253 -0.01
v 0.03763932 0.0253 -0.02
v 0.03763932 0.0253 0.02
v -0.01375399 0.0253 0.01451991
v -0.01854355 0.0253 0.02358255
v -0.01092305 0.0253 0.01675372
v -0.01479185 0.0253 0.02609983
v -0.007736994 0.0253 0.01844286
v -0.01070466 0.0253 0.02802517
v -0.004299409 0.0253 0.01953241
v -0.006374694 0.0253 0.0293149
v -0.0007220483 0.0253 0.01998696
v -0.001900148 0.0253 0.02993976
v 0.002878786 0.0253 0.01979173
v 0.01910368 0.0253 -0.02313113
v -0.0007220483 0.0253 -0.01998696
v 0.02236068 0.0253 -0.02
v 0.002878786 0.0253 -0.01979173
v 0.00638603 0.0253 -0.01895306
v 0.01910368 0.0253 -0.02313113
v 0.01541341 0.0253 -0.02573765
v -0.0007220483 0.0253 -0.01998696
v 0.01137357 0.0253 -0.02776044
v 0.00707577 0.0253 -0.02915362
v -0.001900148 0.0253 0.02993976
v 0.002617493 0.0253 0.02988559
v 0.002878786 0.0253 0.01979173
v 0.00707577 0.0253 0.02915362
v 0.00638603 0.0253 0.01895306
v 0.01137357 0.0253 0.02776044
v 0.009685664 0.0253 0.01749823
v 0.01541341 0.0253 0.02573765
v 0.01267041 0.0253 0.01547452
v 0.01910368 0.0253 0.02313113
v 0.01524324 0.0253 0.01294773
v 0.02236068 0.0253 0.02
v 0.01732051 0.0253 0.01
v 0.02763932 0.0253 0.01
v 0.00707577 0.0253 -0.02915362
v 0.002617493 0.0253 -0.02988559
v -0.0007220483 0.0253 -0.01998696
v -0.001900148 0.0253 -0.02993976
v -0.004299409 0.0253 -0.01953241
v -0.006374694 0.0253 -0.0293149
v -0.007736994 0.0253 -0.01844286
v -0.01070466 0.0253 -0.02802517
v -0.01092305 0.0253 -0.01675372
v -0.01991856 0.0253 -0.001803062
v -0.03 0.0253 5.510911E-18
v -0.01991856 0.0253 0.001803062
v -0.0296598 0.0253 0.00450514
v -0.019271 0.0253 0.005350567
v -0.02864691 0.0253 0.008908103
v -0.01799694 0.0253 0.008724123
v -0.02698432 0.0253 0.01310903
v -0.01613778 0.0253 0.01181406
v -0.02470971 0.0253 0.01701264
v -0.01375399 0.0253 0.01451991
v -0.02187469 0.0253 0.02053041
v -0.01854355 0.0253 0.02358255
v -0.01070466 0.0253 -0.02802517
v -0.01479185 0.0253 -0.02609983
v -0.01092305 0.0253 -0.01675372
v -0.01854355 0.0253 -0.02358255
v -0.01375399 0.0253 -0.01451991
v -0.02187469 0.0253 -0.02053041
v -0.01613778 0.0253 -0.01181406
v -0.02470971 0.0253 -0.01701264
v -0.01799694 0.0253 -0.008724123
v -0.02698432 0.0253 -0.01310903
v -0.019271 0.0253 -0.005350567
v -0.02864691 0.0253 -0.008908103
v -0.01991856 0.0253 -0.001803062
v -0.0296598 0.0253 -0.00450514
v -0.03 0.0253 5.510911E-18
v -0.001900148 0.0003 -0.02993976
v 0.002617493 0.0003 -0.02988559
v -0.02698432 0.0003 0.01310903
v 0.03763932 0.0003 -0.02
v 0.03763932 0.0003 0.02
v 0.02236068 0.0003 -0.02
v 0.02236068 0.0003 0.02
v -0.006374694 0.0003 0.0293149
v 0.002617493 0.0003 -0.02988559
v -0.001900148 0.0003 0.02993976
v 0.00707577 0.0003 -0.02915362
v 0.01137357 0.0003 -0.02776044
v 0.02236068 0.0003 0.02
v 0.01910368 0.0003 0.02313113
v 0.02236068 0.0003 -0.02
v 0.01541341 0.0003 0.02573765
v 0.01137357 0.0003 0.02776044
v 0.01137357 0.0003 0.02776044
v 0.00707577 0.0003 0.02915362
v 0.02236068 0.0003 -0.02
v 0.002617493 0.0003 0.02988559
v 0.01910368 0.0003 -0.02313113
v -0.001900148 0.0003 0.02993976
v 0.01541341 0.0003 -0.02573765
v 0.01137357 0.0003 -0.02776044
v -0.006374694 0.0003 0.0293149
v -0.01070466 0.0003 0.02802517
v 0.002617493 0.0003 -0.02988559
v -0.01479185 0.0003 0.02609983
v -0.01854355 0.0003 0.02358255
v -0.01854355 0.0003 0.02358255
v -0.02187469 0.0003 0.02053041
v 0.002617493 0.0003 -0.02988559
v -0.02470971 0.0003 0.01701264
v -0.02698432 0.0003 0.01310903
v -0.02864691 0.0003 0.008908103
v -0.0296598 0.0003 0.00450514
v -0.02470971 0.0003 -0.01701264
v -0.03 0.0003 5.510911E-18
v -0.01854355 0.0003 -0.02358255
v -0.01479185 0.0003 -0.02609983
v -0.02698432 0.0003 0.01310903
v -0.01479185 0.0003 -0.02609983
v -0.01070466 0.0003 -0.02802517
v -0.02698432 0.0003 0.01310903
v -0.006374694 0.0003 -0.0293149
v -0.001900148 0.0003 -0.02993976
v -0.03 0.0003 5.510911E-18
v -0.0296598 0.0003 -0.00450514
v -0.02470971 0.0003 -0.01701264
v -0.02864691 0.0003 -0.008908103
v -0.02698432 0.0003 -0.01310903
v -0.02864691 0.0003 0.008908103
v -0.02470971 0.0003 -0.01701264
v -0.02698432 0.0003 0.01310903
v -0.02187469 0.0003 -0.02053041
v -0.01854355 0.0003 -0.02358255
v 0.01732051 0.1553 -0.01
v 0.01732051 0.0253 -0.01
v 0.01524324 0.0253 -0.01294773
v 0.01732051 0.1553 -0.01
v 0.01524324 0.0253 -0.01294773
v 0.01524324 0.1553 -0.01294773
v 0.01267041 0.0253 -0.01547452
v 0.01267041 0.1553 -0.01547452
v 0.009685664 0.0253 -0.01749823
v 0.009685664 0.1553 -0.01749823
v 0.00638603 0.0253 -0.01895306
v 0.00638603 0.1553 -0.01895306
v 0.002878786 0.0253 -0.01979173
v 0.002878786 0.1553 -0.01979173
v -0.0007220483 0.0253 -0.01998696
v -0.0007220483 0.1553 -0.01998696
v -0.004299409 0.0253 -0.01953241
v -0.004299409 0.1553 -0.01953241
v -0.007736994 0.0253 -0.01844286
v -0.007736994 0.1553 -0.01844286
v -0.01092305 0.0253 -0.01675372
v -0.01092305 0.1553 -0.01675372
v -0.01375399 0.0253 -0.01451991
v -0.01375399 0.1553 -0.01451991
v -0.01613778 0.0253 -0.01181406
v -0.01613778 0.1553 -0.01181406
v -0.01799694 0.0253 -0.008724123
v -0.01799694 0.1553 -0.008724123
v -0.019271 0.0253 -0.005350567
v -0.019271 0.1553 -0.005350567
v -0.01991856 0.0253 -0.001803062
v -0.01991856 0.1553 -0.001803062
v -0.01991856 0.0253 0.001803062
v -0.01991856 0.1553 0.001803062
v -0.019271 0.0253 0.005350567
v -0.019271 0.1553 0.005350567
v -0.01799694 0.0253 0.008724123
v -0.01799694 0.1553 0.008724123
v -0.01613778 0.0253 0.01181406
v -0.01613778 0.1553 0.01181406
v -0.01375399 0.0253 0.01451991
v -0.01375399 0.1553 0.01451991
v -0.01092305 0.0253 0.01675372
v -0.01092305 0.1553 0.01675372
v -0.007736994 0.0253 0.01844286
v -0.007736994 0.1553 0.01844286
v -0.004299409 0.0253 0.01953241
v -0.004299409 0.1553 0.01953241
v -0.0007220483 0.0253 0.01998696
v -0.0007220483 0.1553 0.01998696
v 0.002878786 0.0253 0.01979173
v 0.002878786 0.1553 0.01979173
v 0.00638603 0.0253 0.01895306
v 0.00638603 0.1553 0.01895306
v 0.009685664 0.0253 0.01749823
v 0.009685664 0.1553 0.01749823
v 0.01267041 0.0253 0.01547452
v 0.01267041 0.1553 0.01547452
v 0.01524324 0.0253 0.01294773
v 0.01524324 0.1553 0.01294773
v 0.01732051 0.0253 0.01
v 0.01732051 0.1553 0.01
v 0.02763932 0.1553 0.01
v 0.01732051 0.1553 0.01
v 0.02763932 0.0253 0.01
v 0.01732051 0.0253 0.01
v 0.02763932 0.1553 -0.01
v 0.02763932 0.1553 0.01
v 0.02763932 0.0253 -0.01
v 0.02763932 0.0253 0.01
v 0.01732051 0.1553 -0.01
v 0.02763932 0.1553 -0.01
v 0.01732051 0.0253 -0.01
v 0.02763932 0.0253 -0.01
v 0.01732051 0.1553 0.01
v 0.02763932 0.1553 0.01
v 0.02763932 0.1553 -0.01
v 0.00638603 0.1553 0.01895306
v 0.009685664 0.1553 0.01749823
v -0.0007220483 0.1553 -0.01998696
v -0.004299409 0.1553 -0.01953241
v -0.007736994 0.1553 -0.01844286
v -0.0007220483 0.1553 0.01998696
v 0.02763932 0.1553 -0.01
v 0.01732051 0.1553 -0.01
v 0.01732051 0.1553 0.01
v 0.01524324 0.1553 -0.01294773
v 0.01267041 0.1553 -0.01547452
v -0.004299409 0.1553 -0.01953241
v -0.0007220483 0.1553 0.01998696
v -0.0007220483 0.1553 -0.01998696
v 0.002878786 0.1553 0.01979173
v 0.00638603 0.1553 0.01895306
v 0.01732051 0.1553 0.01
v 0.002878786 0.1553 -0.01979173
v 0.01524324 0.1553 0.01294773
v -0.0007220483 0.1553 -0.01998696
v 0.01267041 0.1553 0.01547452
v 0.009685664 0.1553 0.01749823
v -0.01092305 0.1553 -0.01675372
v -0.01375399 0.1553 -0.01451991
v -0.01613778 0.1553 0.01181406
v 0.01267041 0.1553 -0.01547452
v 0.009685664 0.1553 -0.01749823
v 0.01732051 0.1553 0.01
v 0.00638603 0.1553 -0.01895306
v 0.002878786 0.1553 -0.01979173
v -0.01092305 0.1553 -0.01675372
v -0.01613778 0.1553 0.01181406
v -0.007736994 0.1553 -0.01844286
v -0.01375399 0.1553 0.01451991
v -0.01092305 0.1553 0.01675372
v -0.01092305 0.1553 0.01675372
v -0.007736994 0.1553 0.01844286
v -0.007736994 0.1553 -0.01844286
v -0.004299409 0.1553 0.01953241
v -0.0007220483 0.1553 0.01998696
v -0.01375399 0.1553 -0.01451991
v -0.01613778 0.1553 -0.01181406
v -0.01613778 0.1553 0.01181406
v -0.01799694 0.1553 -0.008724123
v -0.019271 0.1553 -0.005350567
v -0.019271 0.1553 -0.005350567
v -0.01991856 0.1553 -0.001803062
v -0.01613778 0.1553 0.01181406
v -0.01991856 0.1553 0.001803062
v -0.01799694 0.1553 0.008724123
v -0.019271 0.1553 0.005350567
vt 0.6290323 0.1612903
vt 0.6290323 0
vt 0.4013934 0
vt 0.6290323 0.1612903
vt 0.4013934 0
vt 0.4013934 0.1612903
vt 0.4252016 0
vt 0.4252016 0.1612903
vt 0.4512651 0
vt 0.4512651 0.1612903
vt 0.4789928 0
vt 0.4789928 0.1612903
vt 0.5077559 0
vt 0.5077559 0.1612903
vt 0.536902 0
vt 0.536902 0.1612903
vt 0.56577 0
vt 0.56577 0.1612903
vt 0.5937053 0
vt 0.5937053 0.1612903
vt 0.6200743 0
vt 0.6200743 0.1612903
vt 0.6442788 0
vt 0.6442788 0.1612903
vt 0.3675457 0
vt 0.3675457 0.1612903
vt 0.390241 0
vt 0.390241 0.1612903
vt 0.4154256 0
vt 0.4154256 0.1612903
vt 0.4425284 0
vt 0.4425284 0.1612903
vt 0.4709346 0
vt 0.4709346 0.1612903
vt 0.5 0
vt 0.5 0.1612903
vt 0.5290654 0
vt 0.5290654 0.1612903
vt 0.5574716 0
vt 0.5574716 0.1612903
vt 0.5845744 0
vt 0.5845744 0.1612903
vt 0.609759 0
vt 0.609759 0.1612903
vt 0.6324543 0
vt 0.6324543 0.1612903
vt 0.3557212 0
vt 0.3557212 0.1612903
vt 0.3799257 0
vt 0.3799257 0.1612903
vt 0.4062947 0
vt 0.4062947 0.1612903
vt 0.43423 0
vt 0.43423 0.1612903
vt 0.463098 0
vt 0.463098 0.1612903
vt 0.4922441 0
vt 0.4922441 0.1612903
vt 0.5210072 0
vt 0.5210072 0.1612903
vt 0.5487349 0
vt 0.5487349 0.1612903
vt 0.5747984 0
vt 0.5747984 0.1612903
vt 0.5986066 0
vt 0.5986066 0.1612903
vt 0.3709677 0
vt 0.3709677 0.1612903
vt 0.7181914 0.1612903
vt 0.6196195 0.1612903
vt 0.7181914 0
vt 0.6196195 0
vt 0.6290323 0.1612903
vt 0.3709677 0.1612903
vt 0.6290323 0
vt 0.3709677 0
vt 0.3803805 0.1612903
vt 0.2818086 0.1612903
vt 0.3803805 0
vt 0.2818086 0
vt 0.6196195 0.3709677
vt 0.7181914 0.3709677
vt 0.6536752 0.4354839
vt 0.6536752 0.4354839
vt 0.7181914 0.3709677
vt 0.6536752 0.5645161
vt 0.5165572 0.6222779
vt 0.5378452 0.6128918
vt 0.6196195 0.6290323
vt 0.5571016 0.5998356
vt 0.5737005 0.5835337
vt 0.5737005 0.5835337
vt 0.5871022 0.5645161
vt 0.6196195 0.6290323
vt 0.6536752 0.5645161
vt 0.7181914 0.6290323
vt 0.7181914 0.3709677
vt 0.3866216 0.4063232
vt 0.3557212 0.3478545
vt 0.4048858 0.3919115
vt 0.3799257 0.331614
vt 0.4254409 0.3810138
vt 0.4062947 0.3191924
vt 0.4476189 0.3739845
vt 0.43423 0.3108716
vt 0.4706987 0.3710518
vt 0.463098 0.3068402
vt 0.4939298 0.3723114
vt 0.5986066 0.6492331
vt 0.4706987 0.6289482
vt 0.6196195 0.6290323
vt 0.4939298 0.6276886
vt 0.5165572 0.6222779
vt 0.5986066 0.6492331
vt 0.5747984 0.6660494
vt 0.4706987 0.6289482
vt 0.5487349 0.6790996
vt 0.5210072 0.6880879
vt 0.463098 0.3068402
vt 0.4922441 0.3071897
vt 0.4939298 0.3723114
vt 0.5210072 0.3119121
vt 0.5165572 0.3777221
vt 0.5487349 0.3209004
vt 0.5378452 0.3871082
vt 0.5747984 0.3339506
vt 0.5571016 0.4001644
vt 0.5986066 0.3507669
vt 0.5737005 0.4164663
vt 0.6196195 0.3709677
vt 0.5871022 0.4354839
vt 0.6536752 0.4354839
vt 0.5210072 0.6880879
vt 0.4922441 0.6928103
vt 0.4706987 0.6289482
vt 0.463098 0.6931598
vt 0.4476189 0.6260155
vt 0.43423 0.6891284
vt 0.4254409 0.6189861
vt 0.4062947 0.6808076
vt 0.4048858 0.6080885
vt 0.3468502 0.5116327
vt 0.2818086 0.5
vt 0.3468502 0.4883673
vt 0.2840035 0.4709346
vt 0.351028 0.4654802
vt 0.2905382 0.4425284
vt 0.3592478 0.4437153
vt 0.3012646 0.4154256
vt 0.3712423 0.4237803
vt 0.3159395 0.390241
vt 0.3866216 0.4063232
vt 0.3342299 0.3675457
vt 0.3557212 0.3478545
vt 0.4062947 0.6808076
vt 0.3799257 0.668386
vt 0.4048858 0.6080885
vt 0.3557212 0.6521455
vt 0.3866216 0.5936768
vt 0.3342299 0.6324543
vt 0.3712423 0.5762197
vt 0.3159395 0.609759
vt 0.3592478 0.5562847
vt 0.3012646 0.5845744
vt 0.351028 0.5345198
vt 0.2905382 0.5574716
vt 0.3468502 0.5116327
vt 0.2840035 0.5290654
vt 0.2818086 0.5
vt 0.536902 0.6931598
vt 0.5077559 0.6928103
vt 0.6987354 0.4154256
vt 0.2818086 0.6290323
vt 0.2818086 0.3709677
vt 0.3803805 0.6290323
vt 0.3803805 0.3709677
vt 0.56577 0.3108716
vt 0.5077559 0.6928103
vt 0.536902 0.3068402
vt 0.4789928 0.6880879
vt 0.4512651 0.6790996
vt 0.3803805 0.3709677
vt 0.4013934 0.3507669
vt 0.3803805 0.6290323
vt 0.4252016 0.3339506
vt 0.4512651 0.3209004
vt 0.4512651 0.3209004
vt 0.4789928 0.3119121
vt 0.3803805 0.6290323
vt 0.5077559 0.3071897
vt 0.4013934 0.6492331
vt 0.536902 0.3068402
vt 0.4252016 0.6660494
vt 0.4512651 0.6790996
vt 0.56577 0.3108716
vt 0.5937053 0.3191924
vt 0.5077559 0.6928103
vt 0.6200743 0.331614
vt 0.6442788 0.3478545
vt 0.6442788 0.3478545
vt 0.6657701 0.3675457
vt 0.5077559 0.6928103
vt 0.6840605 0.390241
vt 0.6987354 0.4154256
vt 0.7094618 0.4425284
vt 0.7159965 0.4709346
vt 0.6840605 0.609759
vt 0.7181914 0.5
vt 0.6442788 0.6521455
vt 0.6200743 0.668386
vt 0.6987354 0.4154256
vt 0.6200743 0.668386
vt 0.5937053 0.6808076
vt 0.6987354 0.4154256
vt 0.56577 0.6891284
vt 0.536902 0.6931598
vt 0.7181914 0.5
vt 0.7159965 0.5290654
vt 0.6840605 0.609759
vt 0.7094618 0.5574716
vt 0.6987354 0.5845744
vt 0.7094618 0.4425284
vt 0.6840605 0.609759
vt 0.6987354 0.4154256
vt 0.6657701 0.6324543
vt 0.6442788 0.6521455
vt 0.5645161 1
vt 0.5645161 0.1612903
vt 0.5835337 0.1612903
vt 0.5645161 1
vt 0.5835337 0.1612903
vt 0.5835337 1
vt 0.4428984 0.1612903
vt 0.4428984 1
vt 0.4621548 0.1612903
vt 0.4621548 1
vt 0.4834428 0.1612903
vt 0.4834428 1
vt 0.5060701 0.1612903
vt 0.5060701 1
vt 0.5293013 0.1612903
vt 0.5293013 1
vt 0.5523811 0.1612903
vt 0.5523811 1
vt 0.5745591 0.1612903
vt 0.5745591 1
vt 0.5951142 0.1612903
vt 0.5951142 1
vt 0.6133784 0.1612903
vt 0.6133784 1
vt 0.4237803 0.1612903
vt 0.4237803 1
vt 0.4437153 0.1612903
vt 0.4437153 1
vt 0.4654802 0.1612903
vt 0.4654802 1
vt 0.4883673 0.1612903
vt 0.4883673 1
vt 0.5116327 0.1612903
vt 0.5116327 1
vt 0.5345198 0.1612903
vt 0.5345198 1
vt 0.5562847 0.1612903
vt 0.5562847 1
vt 0.5762197 0.1612903
vt 0.5762197 1
vt 0.3866216 0.1612903
vt 0.3866216 1
vt 0.4048858 0.1612903
vt 0.4048858 1
vt 0.4254409 0.1612903
vt 0.4254409 1
vt 0.4476189 0.1612903
vt 0.4476189 1
vt 0.4706987 0.1612903
vt 0.4706987 1
vt 0.4939298 0.1612903
vt 0.4939298 1
vt 0.5165572 0.1612903
vt 0.5165572 1
vt 0.5378452 0.1612903
vt 0.5378452 1
vt 0.5571016 0.1612903
vt 0.5571016 1
vt 0.4164663 0.1612903
vt 0.4164663 1
vt 0.4354839 0.1612903
vt 0.4354839 1
vt 0.6536752 1
vt 0.5871022 1
vt 0.6536752 0.1612903
vt 0.5871022 0.1612903
vt 0.5645161 1
vt 0.4354839 1
vt 0.5645161 0.1612903
vt 0.4354839 0.1612903
vt 0.4128978 1
vt 0.3463248 1
vt 0.4128978 0.1612903
vt 0.3463248 0.1612903
vt 0.5871022 0.4354839
vt 0.6536752 0.4354839
vt 0.6536752 0.5645161
vt 0.5165572 0.3777221
vt 0.5378452 0.3871082
vt 0.4706987 0.6289482
vt 0.4476189 0.6260155
vt 0.4254409 0.6189861
vt 0.4706987 0.3710518
vt 0.6536752 0.5645161
vt 0.5871022 0.5645161
vt 0.5871022 0.4354839
vt 0.5737005 0.5835337
vt 0.5571016 0.5998356
vt 0.4476189 0.6260155
vt 0.4706987 0.3710518
vt 0.4706987 0.6289482
vt 0.4939298 0.3723114
vt 0.5165572 0.3777221
vt 0.5871022 0.4354839
vt 0.4939298 0.6276886
vt 0.5737005 0.4164663
vt 0.4706987 0.6289482
vt 0.5571016 0.4001644
vt 0.5378452 0.3871082
vt 0.4048858 0.6080885
vt 0.3866216 0.5936768
vt 0.3712423 0.4237803
vt 0.5571016 0.5998356
vt 0.5378452 0.6128918
vt 0.5871022 0.4354839
vt 0.5165572 0.6222779
vt 0.4939298 0.6276886
vt 0.4048858 0.6080885
vt 0.3712423 0.4237803
vt 0.4254409 0.6189861
vt 0.3866216 0.4063232
vt 0.4048858 0.3919115
vt 0.4048858 0.3919115
vt 0.4254409 0.3810138
vt 0.4254409 0.6189861
vt 0.4476189 0.3739845
vt 0.4706987 0.3710518
vt 0.3866216 0.5936768
vt 0.3712423 0.5762197
vt 0.3712423 0.4237803
vt 0.3592478 0.5562847
vt 0.351028 0.5345198
vt 0.351028 0.5345198
vt 0.3468502 0.5116327
vt 0.3712423 0.4237803
vt 0.3468502 0.4883673
vt 0.3592478 0.4437153
vt 0.351028 0.4654802
vn 0.745356 0 -0.6666667
vn 0.745356 0 -0.6666667
vn 0.6367894 0 -0.7710378
vn 0.745356 0 -0.6666667
vn 0.6367894 0 -0.7710378
vn 0.6367894 0 -0.7710378
vn 0.5137805 0 -0.8579217
vn 0.5137805 0 -0.8579217
vn 0.3791189 0 -0.9253479
vn 0.3791189 0 -0.9253479
vn 0.235859 0 -0.9717873
vn 0.235859 0 -0.9717873
vn 0.08724978 0 -0.9961865
vn 0.08724978 0 -0.9961865
vn -0.06333828 0 -0.9979921
vn -0.06333828 0 -0.9979921
vn -0.2124898 0 -0.9771633
vn -0.2124898 0 -0.9771633
vn -0.3568221 0 -0.9341723
vn -0.3568221 0 -0.9341723
vn -0.4930616 0 -0.8699944
vn -0.4930616 0 -0.8699944
vn -0.6181185 0 -0.7860849
vn -0.6181185 0 -0.7860849
vn -0.7291565 0 -0.6843471
vn -0.7291565 0 -0.6843471
vn -0.8236571 0 -0.5670881
vn -0.8236571 0 -0.5670881
vn -0.8994772 0 -0.4369677
vn -0.8994772 0 -0.4369677
vn -0.9548972 0 -0.2969368
vn -0.9548972 0 -0.2969368
vn -0.98866 0 -0.1501713
vn -0.98866 0 -0.1501713
vn -1 0 1.83697E-16
vn -1 0 1.83697E-16
vn -0.98866 0 0.1501713
vn -0.98866 0 0.1501713
vn -0.9548972 0 0.2969368
vn -0.9548972 0 0.2969368
vn -0.8994772 0 0.4369677
vn -0.8994772 0 0.4369677
vn -0.8236571 0 0.5670881
vn -0.8236571 0 0.5670881
vn -0.7291565 0 0.6843471
vn -0.7291565 0 0.6843471
vn -0.6181185 0 0.7860849
vn -0.6181185 0 0.7860849
vn -0.4930616 0 0.8699944
vn -0.4930616 0 0.8699944
vn -0.3568221 0 0.9341723
vn -0.3568221 0 0.9341723
vn -0.2124898 0 0.9771633
vn -0.2124898 0 0.9771633
vn -0.06333828 0 0.9979921
vn -0.06333828 0 0.9979921
vn 0.08724978 0 0.9961865
vn 0.08724978 0 0.9961865
vn 0.235859 0 0.9717873
vn 0.235859 0 0.9717873
vn 0.3791189 0 0.9253479
vn 0.3791189 0 0.9253479
vn 0.5137805 0 0.8579217
vn 0.5137805 0 0.8579217
vn 0.6367894 0 0.7710378
vn 0.6367894 0 0.7710378
vn 0.745356 0 0.6666667
vn 0.745356 0 0.6666667
vn 0 0 1
vn 0 0 1
vn 0 0 1
vn 0 0 1
vn 1 0 0
vn 1 0 0
vn 1 0 0
vn 1 0 0
vn 0 0 -1
vn 0 0 -1
vn 0 0 -1
vn 0 0 -1
vn 0 1 0
vn 0 1 0
vn 0 1 0
vn 0 1 0
vn 0 1 0
vn 0 1 0
vn 0 1 0
vn 0 1 0
vn 0 1 0
vn 0 1 0
vn 0 1 0
vn 0 1 0
vn 0 1 0
vn 0 1 0
vn 0 1 0
vn 0 1 0
vn 0 1 0
vn 0 1 0
vn 0 1 0
vn 0 1 0
vn 0 1 0
vn 0 1 0
vn 0 1 0
vn 0 1 0
vn 0 1 0
vn 0 1 0
vn 0 1 0
vn 0 1 0
vn 0 1 0
vn 0 1 0
vn 0 1 0
vn 0 1 0
vn 0 1 0
vn 0 1 0
vn 0 1 0
vn 0 1 0
vn 0 1 0
vn 0 1 0
vn 0 1 0
vn 0 1 0
vn 0 1 0
vn 0 1 0
vn 0 1 0
vn 0 1 0
vn 0 1 0
vn 0 1 0
vn 0 1 0
vn 0 1 0
vn 0 1 0
vn 0 1 0
vn 0 1 0
vn 0 1 0
vn 0 1 0
vn 0 1 0
vn 0 1 0
vn 0 1 0
vn 0 1 0
vn 0 1 0
vn 0 1 0
vn 0 1 0
vn 0 1 0
vn 0 1 0
vn 0 1 0
vn 0 1 0
vn 0 1 0
vn 0 1 0
vn 0 1 0
vn 0 1 0
vn 0 1 0
vn 0 1 0
vn 0 1 0
vn 0 1 0
vn 0 1 0
vn 0 1 0
vn 0 1 0
vn 0 1 0
vn 0 1 0
vn 0 1 0
vn 0 1 0
vn 0 1 0
vn 0 1 0
vn 0 1 0
vn 0 1 0
vn 0 1 0
vn 0 1 0
vn 0 1 0
vn 0 1 0
vn 0 1 0
vn 0 1 0
vn 0 -1 0
vn 0 -1 0
vn 0 -1 0
vn 0 -1 0
vn 0 -1 0
vn 0 -1 0
vn 0 -1 0
vn 0 -1 0
vn 0 -1 0
vn 0 -1 0
vn 0 -1 0
vn 0 -1 0
vn 0 -1 0
vn 0 -1 0
vn 0 -1 0
vn 0 -1 0
vn 0 -1 0
vn 0 -1 0
vn 0 -1 0
vn 0 -1 0
vn 0 -1 0
vn 0 -1 0
vn 0 -1 0
vn 0 -1 0
vn 0 -1 0
vn 0 -1 0
vn 0 -1 0
vn 0 -1 0
vn 0 -1 0
vn 0 -1 0
vn 0 -1 0
vn 0 -1 0
vn 0 -1 0
vn 0 -1 0
vn 0 -1 0
vn 0 -1 0
vn 0 -1 0
vn 0 -1 0
vn 0 -1 0
vn 0 -1 0
vn 0 -1 0
vn 0 -1 0
vn 0 -1 0
vn 0 -1 0
vn 0 -1 0
vn 0 -1 0
vn 0 -1 0
vn 0 -1 0
vn 0 -1 0
vn 0 -1 0
vn 0 -1 0
vn 0 -1 0
vn 0 -1 0
vn 0 -1 0
vn 0 -1 0
vn 0 -1 0
vn 0 -1 0
vn 0.8660254 0 -0.5
vn 0.8660254 0 -0.5
vn 0.762162 0 -0.6473863
vn 0.8660254 0 -0.5
vn 0.762162 0 -0.6473863
vn 0.762162 0 -0.6473863
vn 0.6335206 0 -0.7737259
vn 0.6335206 0 -0.7737259
vn 0.4842831 0 -0.8749113
vn 0.4842831 0 -0.8749113
vn 0.3193015 0 -0.9476532
vn 0.3193015 0 -0.9476532
vn 0.1439393 0 -0.9895865
vn 0.1439393 0 -0.9895865
vn -0.03610241 0 -0.9993481
vn -0.03610241 0 -0.9993481
vn -0.2149704 0 -0.9766206
vn -0.2149704 0 -0.9766206
vn -0.3868497 0 -0.9221428
vn -0.3868497 0 -0.9221428
vn -0.5461524 0 -0.8376858
vn -0.5461524 0 -0.8376858
vn -0.6876994 0 -0.7259955
vn -0.6876994 0 -0.7259955
vn -0.8068892 0 -0.5907028
vn -0.8068892 0 -0.5907028
vn -0.8998467 0 -0.4362062
vn -0.8998467 0 -0.4362062
vn -0.96355 0 -0.2675283
vn -0.96355 0 -0.2675283
vn -0.9959279 0 -0.09015308
vn -0.9959279 0 -0.09015308
vn -0.9959279 0 0.09015308
vn -0.9959279 0 0.09015308
vn -0.96355 0 0.2675283
vn -0.96355 0 0.2675283
vn -0.8998467 0 0.4362062
vn -0.8998467 0 0.4362062
vn -0.8068892 0 0.5907028
vn -0.8068892 0 0.5907028
vn -0.6876994 0 0.7259955
vn -0.6876994 0 0.7259955
vn -0.5461524 0 0.8376858
vn -0.5461524 0 0.8376858
vn -0.3868497 0 0.9221428
vn -0.3868497 0 0.9221428
vn -0.2149704 0 0.9766206
vn -0.2149704 0 0.9766206
vn -0.03610241 0 0.9993481
vn -0.03610241 0 0.9993481
vn 0.1439393 0 0.9895865
vn 0.1439393 0 0.9895865
vn 0.3193015 0 0.9476532
vn 0.3193015 0 0.9476532
vn 0.4842831 0 0.8749113
vn 0.4842831 0 0.8749113
vn 0.6335206 0 0.7737259
vn 0.6335206 0 0.7737259
vn 0.762162 0 0.6473863
vn 0.762162 0 0.6473863
vn 0.8660254 0 0.5
vn 0.8660254 0 0.5
vn 0 0 1
vn 0 0 1
vn 0 0 1
vn 0 0 1
vn 1 0 0
vn 1 0 0
vn 1 0 0
vn 1 0 0
vn 0 0 -1
vn 0 0 -1
vn 0 0 -1
vn 0 0 -1
vn 0 1 0
vn 0 1 0
vn 0 1 0
vn 0 1 0
vn 0 1 0
vn 0 1 0
vn 0 1 0
vn 0 1 0
vn 0 1 0
vn 0 1 0
vn 0 1 0
vn 0 1 0
vn 0 1 0
vn 0 1 0
vn 0 1 0
vn 0 1 0
vn 0 1 0
vn 0 1 0
vn 0 1 0
vn 0 1 0
vn 0 1 0
vn 0 1 0
vn 0 1 0
vn 0 1 0
vn 0 1 0
vn 0 1 0
vn 0 1 0
vn 0 1 0
vn 0 1 0
vn 0 1 0
vn 0 1 0
vn 0 1 0
vn 0 1 0
vn 0 1 0
vn 0 1 0
vn 0 1 0
vn 0 1 0
vn 0 1 0
vn 0 1 0
vn 0 1 0
vn 0 1 0
vn 0 1 0
vn 0 1 0
vn 0 1 0
vn 0 1 0
vn 0 1 0
vn 0 1 0
vn 0 1 0
vn 0 1 0
vn 0 1 0
vn 0 1 0
vn 0 1 0
vn 0 1 0
vn 0 1 0
usemtl color
f 1/1/1 2/2/2 3/3/3
f 4/4/4 5/5/5 6/6/6
f 5/5/5 7/7/7 6/6/6
f 6/6/6 7/7/7 8/8/8
f 7/7/7 9/9/9 8/8/8
f 8/8/8 9/9/9 10/10/10
f 9/9/9 11/11/11 10/10/10
f 10/10/10 11/11/11 12/12/12
f 11/11/11 13/13/13 12/12/12
f 12/12/12 13/13/13 14/14/14
f 13/13/13 15/15/15 14/14/14
f 14/14/14 15/15/15 16/16/16
f 15/15/15 17/17/17 16/16/16
f 16/16/16 17/17/17 18/18/18
f 17/17/17 19/19/19 18/18/18
f 18/18/18 19/19/19 20/20/20
f 19/19/19 21/21/21 20/20/20
f 20/20/20 21/21/21 22/22/22
f 21/21/21 23/23/23 22/22/22
f 22/22/22 23/23/23 24/24/24
f 23/23/23 25/25/25 24/24/24
f 24/24/24 25/25/25 26/26/26
f 25/25/25 27/27/27 26/26/26
f 26/26/26 27/27/27 28/28/28
f 27/27/27 29/29/29 28/28/28
f 28/28/28 29/29/29 30/30/30
f 29/29/29 31/31/31 30/30/30
f 30/30/30 31/31/31 32/32/32
f 31/31/31 33/33/33 32/32/32
f 32/32/32 33/33/33 34/34/34
f 33/33/33 35/35/35 34/34/34
f 34/34/34 35/35/35 36/36/36
f 35/35/35 37/37/37 36/36/36
f 36/36/36 37/37/37 38/38/38
f 37/37/37 39/39/39 38/38/38
f 38/38/38 39/39/39 40/40/40
f 39/39/39 41/41/41 40/40/40
f 40/40/40 41/41/41 42/42/42
f 41/41/41 43/43/43 42/42/42
f 42/42/42 43/43/43 44/44/44
f 43/43/43 45/45/45 44/44/44
f 44/44/44 45/45/45 46/46/46
f 45/45/45 47/47/47 46/46/46
f 46/46/46 47/47/47 48/48/48
f 47/47/47 49/49/49 48/48/48
f 48/48/48 49/49/49 50/50/50
f 49/49/49 51/51/51 50/50/50
f 50/50/50 51/51/51 52/52/52
f 51/51/51 53/53/53 52/52/52
f 52/52/52 53/53/53 54/54/54
f 53/53/53 55/55/55 54/54/54
f 54/54/54 55/55/55 56/56/56
f 55/55/55 57/57/57 56/56/56
f 56/56/56 57/57/57 58/58/58
f 57/57/57 59/59/59 58/58/58
f 58/58/58 59/59/59 60/60/60
f 59/59/59 61/61/61 60/60/60
f 60/60/60 61/61/61 62/62/62
f 61/61/61 63/63/63 62/62/62
f 62/62/62 63/63/63 64/64/64
f 63/63/63 65/65/65 64/64/64
f 64/64/64 65/65/65 66/66/66
f 65/65/65 67/67/67 66/66/66
f 66/66/66 67/67/67 68/68/68
f 69/69/69 70/70/70 71/71/71
f 70/70/70 72/72/72 71/71/71
f 73/73/73 74/74/74 75/75/75
f 74/74/74 76/76/76 75/75/75
f 77/77/77 78/78/78 79/79/79
f 78/78/78 80/80/80 79/79/79
f 81/81/81 82/82/82 83/83/83
f 84/84/84 85/85/85 86/86/86
f 87/87/87 88/88/88 89/89/89
f 88/88/88 90/90/90 89/89/89
f 89/89/89 90/90/90 91/91/91
f 92/92/92 93/93/93 94/94/94
f 93/93/93 95/95/95 94/94/94
f 94/94/94 95/95/95 96/96/96
f 95/95/95 97/97/97 96/96/96
f 98/98/98 99/99/99 100/100/100
f 99/99/99 101/101/101 100/100/100
f 100/100/100 101/101/101 102/102/102
f 101/101/101 103/103/103 102/102/102
f 102/102/102 103/103/103 104/104/104
f 103/103/103 105/105/105 104/104/104
f 104/104/104 105/105/105 106/106/106
f 105/105/105 107/107/107 106/106/106
f 106/106/106 107/107/107 108/108/108
f 109/109/109 110/110/110 111/111/111
f 110/110/110 112/112/112 111/111/111
f 111/111/111 112/112/112 113/113/113
f 114/114/114 115/115/115 116/116/116
f 115/115/115 117/117/117 116/116/116
f 116/116/116 117/117/117 118/118/118
f 119/119/119 120/120/120 121/121/121
f 120/120/120 122/122/122 121/121/121
f 121/121/121 122/122/122 123/123/123
f 122/122/122 124/124/124 123/123/123
f 123/123/123 124/124/124 125/125/125
f 124/124/124 126/126/126 125/125/125
f 125/125/125 126/126/126 127/127/127
f 126/126/126 128/128/128 127/127/127
f 127/127/127 128/128/128 129/129/129
f 128/128/128 130/130/130 129/129/129
f 129/129/129 130/130/130 131/131/131
f 130/130/130 132/132/132 131/131/131
f 133/133/133 134/134/134 135/135/135
f 134/134/134 136/136/136 135/135/135
f 135/135/135 136/136/136 137/137/137
f 136/136/136 138/138/138 137/137/137
f 137/137/137 138/138/138 139/139/139
f 138/138/138 140/140/140 139/139/139
f 139/139/139 140/140/140 141/141/141
f 142/142/142 143/143/143 144/144/144
f 143/143/143 145/145/145 144/144/144
f 144/144/144 145/145/145 146/146/146
f 145/145/145 147/147/147 146/146/146
f 146/146/146 147/147/147 148/148/148
f 147/147/147 149/149/149 148/148/148
f 148/148/148 149/149/149 150/150/150
f 149/149/149 151/151/151 150/150/150
f 150/150/150 151/151/151 152/152/152
f 151/151/151 153/153/153 152/152/152
f 152/152/152 153/153/153 154/154/154
f 155/155/155 156/156/156 157/157/157
f 156/156/156 158/158/158 157/157/157
f 157/157/157 158/158/158 159/159/159
f 158/158/158 160/160/160 159/159/159
f 159/159/159 160/160/160 161/161/161
f 160/160/160 162/162/162 161/161/161
f 161/161/161 162/162/162 163/163/163
f 162/162/162 164/164/164 163/163/163
f 163/163/163 164/164/164 165/165/165
f 164/164/164 166/166/166 165/165/165
f 165/165/165 166/166/166 167/167/167
f 166/166/166 168/168/168 167/167/167
f 167/167/167 168/168/168 169/169/169
f 170/170/170 171/171/171 172/172/172
f 173/173/173 174/174/174 175/175/175
f 174/174/174 176/176/176 175/175/175
f 177/177/177 178/178/178 179/179/179
f 178/178/178 180/180/180 179/179/179
f 179/179/179 180/180/180 181/181/181
f 182/182/182 183/183/183 184/184/184
f 183/183/183 185/185/185 184/184/184
f 184/184/184 185/185/185 186/186/186
f 187/187/187 188/188/188 189/189/189
f 188/188/188 190/190/190 189/189/189
f 189/189/189 190/190/190 191/191/191
f 190/190/190 192/192/192 191/191/191
f 191/191/191 192/192/192 193/193/193
f 192/192/192 194/194/194 193/193/193
f 195/195/195 196/196/196 197/197/197
f 196/196/196 198/198/198 197/197/197
f 197/197/197 198/198/198 199/199/199
f 200/200/200 201/201/201 202/202/202
f 201/201/201 203/203/203 202/202/202
f 202/202/202 203/203/203 204/204/204
f 205/205/205 206/206/206 207/207/207
f 206/206/206 208/208/208 207/207/207
f 209/209/209 210/210/210 211/211/211
f 212/212/212 213/213/213 214/214/214
f 213/213/213 215/215/215 214/214/214
f 214/214/214 215/215/215 216/216/216
f 217/217/217 218/218/218 219/219/219
f 218/218/218 220/220/220 219/219/219
f 219/219/219 220/220/220 221/221/221
f 222/222/222 223/223/223 224/224/224
f 223/223/223 225/225/225 224/224/224
f 224/224/224 225/225/225 226/226/226
f 227/227/227 228/228/228 229/229/229
f 230/230/230 231/231/231 232/232/232
f 231/231/231 233/233/233 232/232/232
f 232/232/232 233/233/233 234/234/234
f 233/233/233 235/235/235 234/234/234
f 234/234/234 235/235/235 236/236/236
f 235/235/235 237/237/237 236/236/236
f 236/236/236 237/237/237 238/238/238
f 237/237/237 239/239/239 238/238/238
f 238/238/238 239/239/239 240/240/240
f 239/239/239 241/241/241 240/240/240
f 240/240/240 241/241/241 242/242/242
f 241/241/241 243/243/243 242/242/242
f 242/242/242 243/243/243 244/244/244
f 243/243/243 245/245/245 244/244/244
f 244/244/244 245/245/245 246/246/246
f 245/245/245 247/247/247 246/246/246
f 246/246/246 247/247/247 248/248/248
f 247/247/247 249/249/249 248/248/248
f 248/248/248 249/249/249 250/250/250
f 249/249/249 251/251/251 250/250/250
f 250/250/250 251/251/251 252/252/252
f 251/251/251 253/253/253 252/252/252
f 252/252/252 253/253/253 254/254/254
f 253/253/253 255/255/255 254/254/254
f 254/254/254 255/255/255 256/256/256
f 255/255/255 257/257/257 256/256/256
f 256/256/256 257/257/257 258/258/258
f 257/257/257 259/259/259 258/258/258
f 258/258/258 259/259/259 260/260/260
f 259/259/259 261/261/261 260/260/260
f 260/260/260 261/261/261 262/262/262
f 261/261/261 263/263/263 262/262/262
f 262/262/262 263/263/263 264/264/264
f 263/263/263 265/265/265 264/264/264
f 264/264/264 265/265/265 266/266/266
f 265/265/265 267/267/267 266/266/266
f 266/266/266 267/267/267 268/268/268
f 267/267/267 269/269/269 268/268/268
f 268/268/268 269/269/269 270/270/270
f 269/269/269 271/271/271 270/270/270
f 270/270/270 271/271/271 272/272/272
f 271/271/271 273/273/273 272/272/272
f 272/272/272 273/273/273 274/274/274
f 273/273/273 275/275/275 274/274/274
f 274/274/274 275/275/275 276/276/276
f 275/275/275 277/277/277 276/276/276
f 276/276/276 277/277/277 278/278/278
f 277/277/277 279/279/279 278/278/278
f 278/278/278 279/279/279 280/280/280
f 279/279/279 281/281/281 280/280/280
f 280/280/280 281/281/281 282/282/282
f 281/281/281 283/283/283 282/282/282
f 282/282/282 283/283/283 284/284/284
f 283/283/283 285/285/285 284/284/284
f 284/284/284 285/285/285 286/286/286
f 285/285/285 287/287/287 286/286/286
f 286/286/286 287/287/287 288/288/288
f 289/289/289 290/290/290 291/291/291
f 290/290/290 292/292/292 291/291/291
f 293/293/293 294/294/294 295/295/295
f 294/294/294 296/296/296 295/295/295
f 297/297/297 298/298/298 299/299/299
f 298/298/298 300/300/300 299/299/299
f 301/301/301 302/302/302 303/303/303
f 304/304/304 305/305/305 306/306/306
f 307/307/307 308/308/308 309/309/309
f 310/310/310 311/311/311 312/312/312
f 311/311/311 313/313/313 312/312/312
f 312/312/312 313/313/313 314/314/314
f 315/315/315 316/316/316 317/317/317
f 316/316/316 318/318/318 317/317/317
f 317/317/317 318/318/318 319/319/319
f 320/320/320 321/321/321 322/322/322
f 321/321/321 323/323/323 322/322/322
f 322/322/322 323/323/323 324/324/324
f 323/323/323 325/325/325 324/324/324
f 326/326/326 327/327/327 328/328/328
f 329/329/329 330/330/330 331/331/331
f 330/330/330 332/332/332 331/331/331
f 331/331/331 332/332/332 333/333/333
f 334/334/334 335/335/335 336/336/336
f 335/335/335 337/337/337 336/336/336
f 336/336/336 337/337/337 338/338/338
f 339/339/339 340/340/340 341/341/341
f 340/340/340 342/342/342 341/341/341
f 341/341/341 342/342/342 343/343/343
f 344/344/344 345/345/345 346/346/346
f 345/345/345 347/347/347 346/346/346
f 346/346/346 347/347/347 348/348/348
f 349/349/349 350/350/350 351/351/351
f 350/350/350 352/352/352 351/351/351
f 351/351/351 352/352/352 353/353/353
f 352/352/352 354/354/354 353/353/353
##########################

