#
# Bunkspeed OBJ File
# http://www.bunkspeed.com
#
mtllib tablecorner.mtl

##########################
g Root|camcali_VISUALIZE_(Default)|Merged_Parts|Part
##########################
v 0.03 0.0303 0
v 0 0.0303 0
v 0.03 0.0053 0
v 0 0.0053 0
v 0 0.0003 0.03
v 0 0.0053 0.03
v 0 0.0053 0
v 0 0.0303 0
v 0 0.0303 -0.041
v 0 0.0053 0
v 0 0.0003 -0.041
v 0 0.0003 0.03
v 0.03 0.0303 0
v 0.03 0.0303 -0.005
v 0 0.0303 0
v 0.003 0.0303 -0.005
v 0 0.0303 -0.041
v 0.003 0.0303 -0.036
v 0.003 0.0303 -0.041
v 0.03 0.0303 -0.005
v 0.03 0.0303 0
v 0.03 0.0053 0
v 0.03 0.0303 -0.005
v 0.03 0.0053 0
v 0.03 0.0033 -0.005
v 0.03 0.0003 0
v 0.03 0.0033 -0.036
v 0.03 0.0003 -0.041
v 0.03 0.0033 -0.041
v 0 0.0003 0.03
v 0 0.0003 -0.041
v 0.03 0.0003 0
v 0.03 0.0003 -0.041
v 0.003 0.0303 -0.005
v 0.03 0.0303 -0.005
v 0.003 0.0033 -0.005
v 0.03 0.0033 -0.005
v 0.003 0.0033 -0.036
v 0.003 0.0303 -0.036
v 0.003 0.0033 -0.005
v 0.003 0.0303 -0.005
v 0.03 0.0033 -0.036
v 0.003 0.0033 -0.036
v 0.03 0.0033 -0.005
v 0.003 0.0033 -0.005
v 0.003 0.0303 -0.036
v 0.003 0.0033 -0.036
v 0.03 0.0033 -0.036
v 0.03 0.0033 -0.041
v 0.003 0.0303 -0.041
v 0.03 0.0033 -0.036
v 0.003 0.0303 -0.036
v 0.03 0.0033 -0.041
v 0.03 0.0003 -0.041
v 0.003 0.0303 -0.041
v 0 0.0003 -0.041
v 0 0.0303 -0.041
v 0.03 0.0053 -1.734723E-18
v -1.734723E-18 0.0053 0.03
v 0.03 0.0003 -1.734723E-18
v -1.734723E-18 0.0003 0.03
v 0.03 0.0053 0
v 0 0.0053 0
v 0 0.0053 0.03
vt 0.7112676 0.7112676
vt 0.2887324 0.7112676
vt 0.7112676 0.3591549
vt 0.2887324 0.3591549
vt 1 0.2887324
vt 1 0.3591549
vt 0.5774648 0.3591549
vt 0.5774648 0.7112676
vt 2.980232E-08 0.7112676
vt 0.5774648 0.3591549
vt 2.980232E-08 0.2887324
vt 1 0.2887324
vt 0.7112676 0.4225352
vt 0.7112676 0.4929577
vt 0.2887324 0.4225352
vt 0.3309859 0.4929577
vt 0.2887324 1
vt 0.3309859 0.9295774
vt 0.3309859 1
vt 0.4929577 0.7112676
vt 0.4225352 0.7112676
vt 0.4225352 0.3591549
vt 0.4929577 0.7112676
vt 0.4225352 0.3591549
vt 0.4929577 0.3309859
vt 0.4225352 0.2887324
vt 0.9295774 0.3309859
vt 1 0.2887324
vt 1 0.3309859
vt 0.7112676 0
vt 0.7112676 1
vt 0.2887324 0.4225352
vt 0.2887324 1
vt 0.6690141 0.7112676
vt 0.2887324 0.7112676
vt 0.6690141 0.3309859
vt 0.2887324 0.3309859
vt 0.9295774 0.3309859
vt 0.9295774 0.7112676
vt 0.4929577 0.3309859
vt 0.4929577 0.7112676
vt 0.7112676 0.9295774
vt 0.3309859 0.9295774
vt 0.7112676 0.4929577
vt 0.3309859 0.4929577
vt 0.3309859 0.7112676
vt 0.3309859 0.3309859
vt 0.7112676 0.3309859
vt 0.7112676 1
vt 0.3309859 1
vt 0.7112676 0.9295774
vt 0.3309859 0.9295774
vt 0.2887324 0.3309859
vt 0.2887324 0.2887324
vt 0.6690141 0.7112676
vt 0.7112676 0.2887324
vt 0.7112676 0.7112676
vt 0.7112676 0.3591549
vt 0.2887324 0.3591549
vt 0.7112676 0.2887324
vt 0.2887324 0.2887324
vt 0.7112676 0.4225352
vt 0.2887324 0.4225352
vt 0.2887324 0
vn 0 0 1
vn 0 0 1
vn 0 0 1
vn 0 0 1
vn -1 0 0
vn -1 0 0
vn -1 0 0
vn -1 0 0
vn -1 0 0
vn -1 0 0
vn -1 0 0
vn -1 0 0
vn 0 1 0
vn 0 1 0
vn 0 1 0
vn 0 1 0
vn 0 1 0
vn 0 1 0
vn 0 1 0
vn 1 0 0
vn 1 0 0
vn 1 0 0
vn 1 0 0
vn 1 0 0
vn 1 0 0
vn 1 0 0
vn 1 0 0
vn 1 0 0
vn 1 0 0
vn 0 -1 0
vn 0 -1 0
vn 0 -1 0
vn 0 -1 0
vn 0 0 -1
vn 0 0 -1
vn 0 0 -1
vn 0 0 -1
vn 1 -1.28498E-16 0
vn 1 -1.28498E-16 0
vn 1 -1.28498E-16 0
vn 1 -1.28498E-16 0
vn 1.606225E-16 1 0
vn 1.606225E-16 1 0
vn 1.606225E-16 1 0
vn 1.606225E-16 1 0
vn 0 0 1
vn 0 0 1
vn 0 0 1
vn 0.7071068 0.7071068 0
vn 0.7071068 0.7071068 0
vn 0.7071068 0.7071068 0
vn 0.7071068 0.7071068 0
vn 0 0 -1
vn 0 0 -1
vn 0 0 -1
vn 0 0 -1
vn 0 0 -1
vn 0.7071068 0 0.7071068
vn 0.7071068 0 0.7071068
vn 0.7071068 0 0.7071068
vn 0.7071068 0 0.7071068
vn 0 1 0
vn 0 1 0
vn 0 1 0
usemtl color
f 1/1/1 2/2/2 3/3/3
f 2/2/2 4/4/4 3/3/3
f 5/5/5 6/6/6 7/7/7
f 8/8/8 9/9/9 10/10/10
f 9/9/9 11/11/11 10/10/10
f 10/10/10 11/11/11 12/12/12
f 13/13/13 14/14/14 15/15/15
f 14/14/14 16/16/16 15/15/15
f 15/15/15 16/16/16 17/17/17
f 16/16/16 18/18/18 17/17/17
f 17/17/17 18/18/18 19/19/19
f 20/20/20 21/21/21 22/22/22
f 23/23/23 24/24/24 25/25/25
f 24/24/24 26/26/26 25/25/25
f 25/25/25 26/26/26 27/27/27
f 26/26/26 28/28/28 27/27/27
f 27/27/27 28/28/28 29/29/29
f 30/30/30 31/31/31 32/32/32
f 31/31/31 33/33/33 32/32/32
f 34/34/34 35/35/35 36/36/36
f 35/35/35 37/37/37 36/36/36
f 38/38/38 39/39/39 40/40/40
f 39/39/39 41/41/41 40/40/40
f 42/42/42 43/43/43 44/44/44
f 43/43/43 45/45/45 44/44/44
f 46/46/46 47/47/47 48/48/48
f 49/49/49 50/50/50 51/51/51
f 50/50/50 52/52/52 51/51/51
f 53/53/53 54/54/54 55/55/55
f 54/54/54 56/56/56 55/55/55
f 55/55/55 56/56/56 57/57/57
f 58/58/58 59/59/59 60/60/60
f 59/59/59 61/61/61 60/60/60
f 62/62/62 63/63/63 64/64/64
##########################

