#
# Bunkspeed OBJ File
# http://www.bunkspeed.com
#
mtllib star.mtl

##########################
g Root|camcali_VISUALIZE_(Default)|Merged_Parts|Part
##########################
v 0.03 0.06435283 0
v 0.03 0.06435283 -0.005
v 0 0.06435283 0
v -0.003 0.06435283 -0.005
v 0 0.06435283 0.0308
v -0.003 0.06435283 0.0358
v 1.42431E-18 0.06435283 0.0358
v 0.03 0.06435283 -0.005
v 0.03 0.06435283 0
v 0.03 0.03135283 -0.005
v 0.03 0.03435283 0
v 0.03 0.03135283 0.0358
v 0.03 0.03435283 0.0308
v 0.03 0.03435283 0.0358
v -0.003 0.04905283 -0.005
v -0.003 0.06435283 -0.005
v 0.002 0.04905283 -0.005
v 0.03 0.06435283 -0.005
v 0.002 0.04665283 -0.005
v 0.03 0.03135283 -0.005
v -0.003 0.04665283 -0.005
v -0.003 0.03135283 -0.005
v 0.03 0.03435283 0
v 0.03 0.06435283 0
v 0 0.03435283 0
v 0 0.06435283 0
v 0 0.06435283 0.0308
v 0 0.03435283 0.0308
v 0 0.06435283 0
v 0 0.03435283 0
v 0 0.03435283 0.0308
v 0.03 0.03435283 0.0308
v 0 0.03435283 0
v 0.03 0.03435283 0
v -0.003 0.03135283 0.0358
v -0.003 0.03135283 -0.005
v 0.03 0.03135283 0.0358
v 0.03 0.03135283 -0.005
v -0.003 0.06435283 0.0358
v -0.003 0.06435283 -0.005
v -0.003 0.03135283 0.0358
v -0.003 0.04905283 -0.005
v -0.003 0.03067521 -0.05658135
v -0.003 0.0003000014 -0.03554915
v -0.003 0.03723647 -0.03638784
v -0.003 0.05846918 -0.03638784
v -0.003 0.09540565 -0.03554915
v -0.003 0.06503045 -0.05658135
v -0.003 0.01846357 -0.09145085
v -0.003 0.05846918 -0.03638784
v -0.003 0.04785283 -0.06906162
v -0.003 0.06503045 -0.05658135
v -0.003 0.07724209 -0.09145085
v -0.003 0.03135283 -0.005
v -0.003 0.03135283 0.0358
v -0.003 0.04665283 -0.005
v -0.003 0.04905283 -0.005
v -0.003 0.03723647 -0.03638784
v -0.003 0.05846918 -0.03638784
v -0.003 0.03067521 -0.05658135
v -0.003 0.01846357 -0.09145085
v 0.03 0.03435283 0.0358
v 0.03 0.03435283 0.0308
v 0.02963065 0.03904586 0.0308
v 0.03 0.03435283 0.0358
v 0.02963065 0.03904586 0.0308
v 0.02963065 0.03904586 0.0358
v 0.02853169 0.04362334 0.0308
v 0.02853169 0.04362334 0.0358
v 0.0267302 0.04797255 0.0308
v 0.0267302 0.04797255 0.0358
v 0.02427051 0.05198639 0.0308
v 0.02427051 0.05198639 0.0358
v 0.0212132 0.05556603 0.0308
v 0.0212132 0.05556603 0.0358
v 0.01763356 0.05862334 0.0308
v 0.01763356 0.05862334 0.0358
v 0.01361972 0.06108303 0.0308
v 0.01361972 0.06108303 0.0358
v 0.00927051 0.06288452 0.0308
v 0.00927051 0.06288452 0.0358
v 0.004693034 0.06398348 0.0308
v 0.004693034 0.06398348 0.0358
v 1.42431E-18 0.06435283 0.0308
v 1.42431E-18 0.06435283 0.0358
v 0.03 0.03135283 0.0358
v 0.03 0.03435283 0.0358
v -0.003 0.03135283 0.0358
v 0.02963065 0.03904586 0.0358
v 0.02853169 0.04362334 0.0358
v 0.02853169 0.04362334 0.0358
v 0.0267302 0.04797255 0.0358
v -0.003 0.03135283 0.0358
v 0.02427051 0.05198639 0.0358
v 0.0212132 0.05556603 0.0358
v 0.00927051 0.06288452 0.0358
v 0.004693034 0.06398348 0.0358
v -0.003 0.03135283 0.0358
v 0 0.06435283 0.0358
v -0.003 0.06435283 0.0358
v 0.0212132 0.05556603 0.0358
v 0.01763356 0.05862334 0.0358
v -0.003 0.03135283 0.0358
v 0.01361972 0.06108303 0.0358
v 0.00927051 0.06288452 0.0358
v 0.02427051 0.05198639 0.0308
v 0.0267302 0.04797255 0.0308
v 0 0.03435283 0.0308
v 0.0267302 0.04797255 0.0308
v 0.02853169 0.04362334 0.0308
v 0 0.03435283 0.0308
v 0.02963065 0.03904586 0.0308
v 0.03 0.03435283 0.0308
v 0 0.06435283 0.0308
v 0.004693034 0.06398348 0.0308
v 0 0.03435283 0.0308
v 0.00927051 0.06288452 0.0308
v 0.01361972 0.06108303 0.0308
v 0.01361972 0.06108303 0.0308
v 0.01763356 0.05862334 0.0308
v 0 0.03435283 0.0308
v 0.0212132 0.05556603 0.0308
v 0.02427051 0.05198639 0.0308
v 0.002 0.09540565 -0.03554915
v 0.002 0.06503045 -0.05658135
v -0.003 0.09540565 -0.03554915
v -0.003 0.06503045 -0.05658135
v 0.002 0.05846918 -0.03638784
v 0.002 0.09540565 -0.03554915
v -0.003 0.05846918 -0.03638784
v -0.003 0.09540565 -0.03554915
v 0.002 0.04905283 -0.005
v 0.002 0.05846918 -0.03638784
v -0.003 0.04905283 -0.005
v -0.003 0.05846918 -0.03638784
v 0.002 0.03723647 -0.03638784
v 0.002 0.04665283 -0.005
v -0.003 0.03723647 -0.03638784
v -0.003 0.04665283 -0.005
v 0.002 0.0003000014 -0.03554915
v 0.002 0.03723647 -0.03638784
v -0.003 0.0003000014 -0.03554915
v -0.003 0.03723647 -0.03638784
v 0.002 0.03067521 -0.05658135
v 0.002 0.0003000014 -0.03554915
v -0.003 0.03067521 -0.05658135
v -0.003 0.0003000014 -0.03554915
v 0.002 0.01846357 -0.09145085
v 0.002 0.03067521 -0.05658135
v -0.003 0.01846357 -0.09145085
v -0.003 0.03067521 -0.05658135
v 0.002 0.04785283 -0.06906162
v 0.002 0.01846357 -0.09145085
v -0.003 0.04785283 -0.06906162
v -0.003 0.01846357 -0.09145085
v 0.002 0.07724209 -0.09145085
v 0.002 0.04785283 -0.06906162
v -0.003 0.07724209 -0.09145085
v -0.003 0.04785283 -0.06906162
v 0.002 0.06503045 -0.05658135
v 0.002 0.07724209 -0.09145085
v -0.003 0.06503045 -0.05658135
v -0.003 0.07724209 -0.09145085
v 0.002 0.05846918 -0.03638784
v 0.002 0.01846357 -0.09145085
v 0.002 0.04785283 -0.06906162
v 0.002 0.09540565 -0.03554915
v 0.002 0.05846918 -0.03638784
v 0.002 0.06503045 -0.05658135
v 0.002 0.04785283 -0.06906162
v 0.002 0.07724209 -0.09145085
v 0.002 0.04905283 -0.005
v 0.002 0.04665283 -0.005
v 0.002 0.05846918 -0.03638784
v 0.002 0.03723647 -0.03638784
v 0.002 0.01846357 -0.09145085
v 0.002 0.05846918 -0.03638784
v 0.002 0.03067521 -0.05658135
v 0.002 0.03723647 -0.03638784
v 0.002 0.0003000014 -0.03554915
vt 0.6296651 0.281334
vt 0.6296651 0.3206266
vt 0.3939103 0.281334
vt 0.3703349 0.3206266
vt 0.3939103 0.03929245
vt 0.3703349 0
vt 0.3939103 0
vt 0.3206266 0.6296651
vt 0.2813341 0.6296651
vt 0.3206266 0.3703349
vt 0.2813341 0.3939103
vt 0 0.3703349
vt 0.03929245 0.3939103
vt 0 0.3939103
vt 0.6296651 0.5094302
vt 0.6296651 0.6296651
vt 0.5903727 0.5094302
vt 0.3703349 0.6296651
vt 0.5903727 0.4905698
vt 0.3703349 0.3703349
vt 0.6296651 0.4905698
vt 0.6296651 0.3703349
vt 0.6296651 0.3939103
vt 0.6296651 0.6296651
vt 0.3939103 0.3939103
vt 0.3939103 0.6296651
vt 0.03929245 0.6296651
vt 0.03929245 0.3939103
vt 0.2813341 0.6296651
vt 0.2813341 0.3939103
vt 0.3939103 0.03929245
vt 0.6296651 0.03929245
vt 0.3939103 0.281334
vt 0.6296651 0.281334
vt 0.6296651 0
vt 0.6296651 0.3206266
vt 0.3703349 0
vt 0.3703349 0.3206266
vt 1 0.6296651
vt 0.6793734 0.6296651
vt 1 0.3703349
vt 0.6793734 0.5094302
vt 0.2740217 0.3650098
vt 0.4393032 0.1263064
vt 0.4327123 0.4165714
vt 0.4327123 0.5834285
vt 0.4393032 0.8736936
vt 0.2740217 0.6349902
vt 2.980232E-08 0.2690446
vt 0.4327123 0.5834285
vt 0.1759456 0.5
vt 0.2740217 0.6349902
vt 2.980232E-08 0.7309554
vt 0.6793734 0.3703349
vt 1 0.3703349
vt 0.6793734 0.4905698
vt 0.6793734 0.5094302
vt 0.4327123 0.4165714
vt 0.4327123 0.5834285
vt 0.2740217 0.3650098
vt 2.980232E-08 0.2690446
vt 0 0.3939103
vt 0.03929245 0.3939103
vt 0.03929245 0.4307905
vt 0 0.3939103
vt 0.03929245 0.4307905
vt 0 0.4307905
vt 0.03929245 0.4667626
vt 0 0.4667626
vt 0.03929245 0.5009408
vt 0 0.5009408
vt 0.03929245 0.5324836
vt 0 0.5324836
vt 0.5606142 0.03929245
vt 0.5606142 0
vt 0.5324835 0.03929245
vt 0.5324835 0
vt 0.5009408 0.03929245
vt 0.5009408 0
vt 0.4667626 0.03929245
vt 0.4667626 0
vt 0.4307905 0.03929245
vt 0.4307905 0
vt 0.3939103 0.03929245
vt 0.3939103 0
vt 0.6296651 0.3703349
vt 0.6296651 0.3939103
vt 0.3703349 0.3703349
vt 0.6267626 0.4307905
vt 0.6181265 0.4667626
vt 0.6181265 0.4667626
vt 0.6039694 0.5009408
vt 0.3703349 0.3703349
vt 0.58464 0.5324836
vt 0.5606142 0.5606142
vt 0.4667626 0.6181265
vt 0.4307905 0.6267626
vt 0.3703349 0.3703349
vt 0.3939103 0.6296651
vt 0.3703349 0.6296651
vt 0.5606142 0.5606142
vt 0.5324835 0.58464
vt 0.3703349 0.3703349
vt 0.5009408 0.6039695
vt 0.4667626 0.6181265
vt 0.41536 0.5324836
vt 0.3960306 0.5009408
vt 0.6060897 0.3939103
vt 0.3960306 0.5009408
vt 0.3818735 0.4667626
vt 0.6060897 0.3939103
vt 0.3732374 0.4307905
vt 0.3703349 0.3939103
vt 0.6060897 0.6296651
vt 0.5692095 0.6267626
vt 0.6060897 0.3939103
vt 0.5332374 0.6181265
vt 0.4990592 0.6039695
vt 0.4990592 0.6039695
vt 0.4675165 0.58464
vt 0.6060897 0.3939103
vt 0.4393858 0.5606142
vt 0.41536 0.5324836
vt 0.5903727 0.8736936
vt 0.5903727 0.6349902
vt 0.6296651 0.8736936
vt 0.6296651 0.6349902
vt 0.4096273 0.5834285
vt 0.4096273 0.8736936
vt 0.3703349 0.5834285
vt 0.3703349 0.8736936
vt 0.4096273 0.3206266
vt 0.4096273 0.5672877
vt 0.3703349 0.3206266
vt 0.3703349 0.5672877
vt 0.5903727 0.5672877
vt 0.5903727 0.3206266
vt 0.6296651 0.5672877
vt 0.6296651 0.3206266
vt 0.4096273 0.1263064
vt 0.4096273 0.4165714
vt 0.3703349 0.1263064
vt 0.3703349 0.4165714
vt 0.5903727 0.3650098
vt 0.5903727 0.1263064
vt 0.6296651 0.3650098
vt 0.6296651 0.1263064
vt 0.5903727 1
vt 0.5903727 0.7259783
vt 0.6296651 1
vt 0.6296651 0.7259783
vt 0.5903727 0.5
vt 0.5903727 0.2690446
vt 0.6296651 0.5
vt 0.6296651 0.2690446
vt 0.5903727 0.7309554
vt 0.5903727 0.5
vt 0.6296651 0.7309554
vt 0.6296651 0.5
vt 0.4096273 0.7259783
vt 0.4096273 1
vt 0.3703349 0.7259783
vt 0.3703349 1
vt 0.5672877 0.5834285
vt 1 0.2690446
vt 0.8240544 0.5
vt 0.5606968 0.8736936
vt 0.5672877 0.5834285
vt 0.7259783 0.6349902
vt 0.8240544 0.5
vt 1 0.7309554
vt 0.3206266 0.5094302
vt 0.3206266 0.4905698
vt 0.5672877 0.5834285
vt 0.5672877 0.4165714
vt 1 0.2690446
vt 0.5672877 0.5834285
vt 0.7259783 0.3650098
vt 0.5672877 0.4165714
vt 0.5606968 0.1263064
vn 0 1 0
vn 0 1 0
vn 0 1 0
vn 0 1 0
vn 0 1 0
vn 0 1 0
vn 0 1 0
vn 1 0 0
vn 1 0 0
vn 1 0 0
vn 1 0 0
vn 1 0 0
vn 1 0 0
vn 1 0 0
vn 0 0 -1
vn 0 0 -1
vn 0 0 -1
vn 0 0 -1
vn 0 0 -1
vn 0 0 -1
vn 0 0 -1
vn 0 0 -1
vn 0 0 1
vn 0 0 1
vn 0 0 1
vn 0 0 1
vn 1 0 0
vn 1 0 0
vn 1 0 0
vn 1 0 0
vn 0 1 0
vn 0 1 0
vn 0 1 0
vn 0 1 0
vn 1.314184E-16 -1 0
vn 1.314184E-16 -1 0
vn 1.314184E-16 -1 0
vn 1.314184E-16 -1 0
vn -1 -1.445603E-16 0
vn -1 -1.445603E-16 0
vn -1 -1.445603E-16 0
vn -1 -1.445603E-16 0
vn -1 -1.445603E-16 0
vn -1 -1.445603E-16 0
vn -1 -1.445603E-16 0
vn -1 -1.445603E-16 0
vn -1 -1.445603E-16 0
vn -1 -1.445603E-16 0
vn -1 -1.445603E-16 0
vn -1 -1.445603E-16 0
vn -1 -1.445603E-16 0
vn -1 -1.445603E-16 0
vn -1 -1.445603E-16 0
vn -1 -1.445603E-16 0
vn -1 -1.445603E-16 0
vn -1 -1.445603E-16 0
vn -1 -1.445603E-16 0
vn -1 -1.445603E-16 0
vn -1 -1.445603E-16 0
vn -1 -1.445603E-16 0
vn -1 -1.445603E-16 0
vn 1 1.454732E-15 0
vn 1 1.454732E-15 0
vn 0.9876884 0.1564345 0
vn 1 1.454732E-15 0
vn 0.9876884 0.1564345 0
vn 0.9876884 0.1564345 0
vn 0.9510565 0.309017 0
vn 0.9510565 0.309017 0
vn 0.8910065 0.4539905 0
vn 0.8910065 0.4539905 0
vn 0.809017 0.5877852 0
vn 0.809017 0.5877852 0
vn 0.7071068 0.7071068 0
vn 0.7071068 0.7071068 0
vn 0.5877852 0.809017 0
vn 0.5877852 0.809017 0
vn 0.4539905 0.8910065 0
vn 0.4539905 0.8910065 0
vn 0.309017 0.9510565 0
vn 0.309017 0.9510565 0
vn 0.1564345 0.9876884 0
vn 0.1564345 0.9876884 0
vn 1.49308E-15 1 0
vn 1.49308E-15 1 0
vn 0 0 1
vn 0 0 1
vn 0 0 1
vn 0 0 1
vn 0 0 1
vn 0 0 1
vn 0 0 1
vn 0 0 1
vn 0 0 1
vn 0 0 1
vn 0 0 1
vn 0 0 1
vn 0 0 1
vn 0 0 1
vn 0 0 1
vn 0 0 1
vn 0 0 1
vn 0 0 1
vn 0 0 1
vn 0 0 1
vn 0 0 -1
vn 0 0 -1
vn 0 0 -1
vn 0 0 -1
vn 0 0 -1
vn 0 0 -1
vn 0 0 -1
vn 0 0 -1
vn 0 0 -1
vn 0 0 -1
vn 0 0 -1
vn 0 0 -1
vn 0 0 -1
vn 0 0 -1
vn 0 0 -1
vn 0 0 -1
vn 0 0 -1
vn 0 0 -1
vn -8.229364E-17 0.5692687 -0.8221515
vn -8.229364E-17 0.5692687 -0.8221515
vn -8.229364E-17 0.5692687 -0.8221515
vn -8.229364E-17 0.5692687 -0.8221515
vn 3.281594E-18 -0.02270052 0.9997423
vn 3.281594E-18 -0.02270052 0.9997423
vn 3.281594E-18 -0.02270052 0.9997423
vn 3.281594E-18 -0.02270052 0.9997423
vn -1.384636E-16 0.9578263 0.2873479
vn -1.384636E-16 0.9578263 0.2873479
vn -1.384636E-16 0.9578263 0.2873479
vn -1.384636E-16 0.9578263 0.2873479
vn 1.384636E-16 -0.9578263 0.2873479
vn 1.384636E-16 -0.9578263 0.2873479
vn 1.384636E-16 -0.9578263 0.2873479
vn 1.384636E-16 -0.9578263 0.2873479
vn -3.281594E-18 0.02270052 0.9997423
vn -3.281594E-18 0.02270052 0.9997423
vn -3.281594E-18 0.02270052 0.9997423
vn -3.281594E-18 0.02270052 0.9997423
vn 8.229364E-17 -0.5692687 -0.8221515
vn 8.229364E-17 -0.5692687 -0.8221515
vn 8.229364E-17 -0.5692687 -0.8221515
vn 8.229364E-17 -0.5692687 -0.8221515
vn 1.364355E-16 -0.9437966 0.3305268
vn 1.364355E-16 -0.9437966 0.3305268
vn 1.364355E-16 -0.9437966 0.3305268
vn 1.364355E-16 -0.9437966 0.3305268
vn -8.760338E-17 0.6059989 -0.7954655
vn -8.760338E-17 0.6059989 -0.7954655
vn -8.760338E-17 0.6059989 -0.7954655
vn -8.760338E-17 0.6059989 -0.7954655
vn 8.760338E-17 -0.6059989 -0.7954655
vn 8.760338E-17 -0.6059989 -0.7954655
vn 8.760338E-17 -0.6059989 -0.7954655
vn 8.760338E-17 -0.6059989 -0.7954655
vn -1.364355E-16 0.9437966 0.3305268
vn -1.364355E-16 0.9437966 0.3305268
vn -1.364355E-16 0.9437966 0.3305268
vn -1.364355E-16 0.9437966 0.3305268
vn 1 1.459817E-16 2.46519E-32
vn 1 1.459817E-16 2.46519E-32
vn 1 1.459817E-16 2.46519E-32
vn 1 1.459817E-16 2.46519E-32
vn 1 1.459817E-16 2.46519E-32
vn 1 1.459817E-16 2.46519E-32
vn 1 1.459817E-16 2.46519E-32
vn 1 1.459817E-16 2.46519E-32
vn 1 1.459817E-16 2.46519E-32
vn 1 1.459817E-16 2.46519E-32
vn 1 1.459817E-16 2.46519E-32
vn 1 1.459817E-16 2.46519E-32
vn 1 1.459817E-16 2.46519E-32
vn 1 1.459817E-16 2.46519E-32
vn 1 1.459817E-16 2.46519E-32
vn 1 1.459817E-16 2.46519E-32
vn 1 1.459817E-16 2.46519E-32
usemtl color
f 1/1/1 2/2/2 3/3/3
f 2/2/2 4/4/4 3/3/3
f 3/3/3 4/4/4 5/5/5
f 4/4/4 6/6/6 5/5/5
f 5/5/5 6/6/6 7/7/7
f 8/8/8 9/9/9 10/10/10
f 9/9/9 11/11/11 10/10/10
f 10/10/10 11/11/11 12/12/12
f 11/11/11 13/13/13 12/12/12
f 12/12/12 13/13/13 14/14/14
f 15/15/15 16/16/16 17/17/17
f 16/16/16 18/18/18 17/17/17
f 17/17/17 18/18/18 19/19/19
f 18/18/18 20/20/20 19/19/19
f 19/19/19 20/20/20 21/21/21
f 20/20/20 22/22/22 21/21/21
f 23/23/23 24/24/24 25/25/25
f 24/24/24 26/26/26 25/25/25
f 27/27/27 28/28/28 29/29/29
f 28/28/28 30/30/30 29/29/29
f 31/31/31 32/32/32 33/33/33
f 32/32/32 34/34/34 33/33/33
f 35/35/35 36/36/36 37/37/37
f 36/36/36 38/38/38 37/37/37
f 39/39/39 40/40/40 41/41/41
f 40/40/40 42/42/42 41/41/41
f 43/43/43 44/44/44 45/45/45
f 46/46/46 47/47/47 48/48/48
f 49/49/49 50/50/50 51/51/51
f 50/50/50 52/52/52 51/51/51
f 51/51/51 52/52/52 53/53/53
f 54/54/54 55/55/55 56/56/56
f 55/55/55 57/57/57 56/56/56
f 56/56/56 57/57/57 58/58/58
f 57/57/57 59/59/59 58/58/58
f 58/58/58 59/59/59 60/60/60
f 59/59/59 61/61/61 60/60/60
f 62/62/62 63/63/63 64/64/64
f 65/65/65 66/66/66 67/67/67
f 66/66/66 68/68/68 67/67/67
f 67/67/67 68/68/68 69/69/69
f 68/68/68 70/70/70 69/69/69
f 69/69/69 70/70/70 71/71/71
f 70/70/70 72/72/72 71/71/71
f 71/71/71 72/72/72 73/73/73
f 72/72/72 74/74/74 73/73/73
f 73/73/73 74/74/74 75/75/75
f 74/74/74 76/76/76 75/75/75
f 75/75/75 76/76/76 77/77/77
f 76/76/76 78/78/78 77/77/77
f 77/77/77 78/78/78 79/79/79
f 78/78/78 80/80/80 79/79/79
f 79/79/79 80/80/80 81/81/81
f 80/80/80 82/82/82 81/81/81
f 81/81/81 82/82/82 83/83/83
f 82/82/82 84/84/84 83/83/83
f 83/83/83 84/84/84 85/85/85
f 86/86/86 87/87/87 88/88/88
f 87/87/87 89/89/89 88/88/88
f 88/88/88 89/89/89 90/90/90
f 91/91/91 92/92/92 93/93/93
f 92/92/92 94/94/94 93/93/93
f 93/93/93 94/94/94 95/95/95
f 96/96/96 97/97/97 98/98/98
f 97/97/97 99/99/99 98/98/98
f 98/98/98 99/99/99 100/100/100
f 101/101/101 102/102/102 103/103/103
f 102/102/102 104/104/104 103/103/103
f 103/103/103 104/104/104 105/105/105
f 106/106/106 107/107/107 108/108/108
f 109/109/109 110/110/110 111/111/111
f 110/110/110 112/112/112 111/111/111
f 111/111/111 112/112/112 113/113/113
f 114/114/114 115/115/115 116/116/116
f 115/115/115 117/117/117 116/116/116
f 116/116/116 117/117/117 118/118/118
f 119/119/119 120/120/120 121/121/121
f 120/120/120 122/122/122 121/121/121
f 121/121/121 122/122/122 123/123/123
f 124/124/124 125/125/125 126/126/126
f 125/125/125 127/127/127 126/126/126
f 128/128/128 129/129/129 130/130/130
f 129/129/129 131/131/131 130/130/130
f 132/132/132 133/133/133 134/134/134
f 133/133/133 135/135/135 134/134/134
f 136/136/136 137/137/137 138/138/138
f 137/137/137 139/139/139 138/138/138
f 140/140/140 141/141/141 142/142/142
f 141/141/141 143/143/143 142/142/142
f 144/144/144 145/145/145 146/146/146
f 145/145/145 147/147/147 146/146/146
f 148/148/148 149/149/149 150/150/150
f 149/149/149 151/151/151 150/150/150
f 152/152/152 153/153/153 154/154/154
f 153/153/153 155/155/155 154/154/154
f 156/156/156 157/157/157 158/158/158
f 157/157/157 159/159/159 158/158/158
f 160/160/160 161/161/161 162/162/162
f 161/161/161 163/163/163 162/162/162
f 164/164/164 165/165/165 166/166/166
f 167/167/167 168/168/168 169/169/169
f 168/168/168 170/170/170 169/169/169
f 169/169/169 170/170/170 171/171/171
f 172/172/172 173/173/173 174/174/174
f 173/173/173 175/175/175 174/174/174
f 176/176/176 177/177/177 178/178/178
f 177/177/177 179/179/179 178/178/178
f 178/178/178 179/179/179 180/180/180
##########################

